<svg width="20" height="5" viewBox="0 0 20 5" fill="none" xmlns="http://www.w3.org/2000/svg">
<path d="M10 0.5C10.3956 0.5 10.7822 0.617298 11.1111 0.837061C11.44 1.05682 11.6964 1.36918 11.8478 1.73463C11.9991 2.10008 12.0387 2.50222 11.9616 2.89018C11.8844 3.27814 11.6939 3.63451 11.4142 3.91421C11.1345 4.19392 10.7781 4.3844 10.3902 4.46157C10.0022 4.53874 9.60008 4.49913 9.23463 4.34776C8.86918 4.19638 8.55682 3.94004 8.33706 3.61114C8.1173 3.28224 8 2.89556 8 2.5C8 1.96957 8.21071 1.46086 8.58579 1.08579C8.96086 0.710713 9.46957 0.5 10 0.5ZM0 2.5C0 2.89556 0.117298 3.28224 0.337061 3.61114C0.556824 3.94004 0.869181 4.19638 1.23463 4.34776C1.60009 4.49913 2.00222 4.53874 2.39018 4.46157C2.77814 4.3844 3.13451 4.19392 3.41421 3.91421C3.69392 3.63451 3.8844 3.27814 3.96157 2.89018C4.03874 2.50222 3.99913 2.10008 3.84776 1.73463C3.69638 1.36918 3.44004 1.05682 3.11114 0.837061C2.78224 0.617298 2.39556 0.5 2 0.5C1.46957 0.5 0.960859 0.710713 0.585786 1.08579C0.210714 1.46086 0 1.96957 0 2.5ZM16 2.5C16 2.89556 16.1173 3.28224 16.3371 3.61114C16.5568 3.94004 16.8692 4.19638 17.2346 4.34776C17.6001 4.49913 18.0022 4.53874 18.3902 4.46157C18.7781 4.3844 19.1345 4.19392 19.4142 3.91421C19.6939 3.63451 19.8844 3.27814 19.9616 2.89018C20.0387 2.50222 19.9991 2.10008 19.8478 1.73463C19.6964 1.36918 19.44 1.05682 19.1111 0.837061C18.7822 0.617298 18.3956 0.5 18 0.5C17.4696 0.5 16.9609 0.710713 16.5858 1.08579C16.2107 1.46086 16 1.96957 16 2.5Z" fill="black"/>
</svg>
