<svg width="20" height="13" viewBox="0 0 20 13" fill="none" xmlns="http://www.w3.org/2000/svg">
<path d="M12.8571 0V1.44444H17.5614L11.4286 7.64537L8.36214 4.54494C8.29585 4.47785 8.21712 4.42463 8.13047 4.38831C8.04382 4.352 7.95094 4.33331 7.85714 4.33331C7.76334 4.33331 7.67046 4.352 7.58381 4.38831C7.49716 4.42463 7.41844 4.47785 7.35214 4.54494L0 11.9787L1.01007 13L7.85714 6.07685L10.9236 9.17728C10.9899 9.24437 11.0686 9.2976 11.1552 9.33391C11.2419 9.37022 11.3348 9.38891 11.4286 9.38891C11.5224 9.38891 11.6153 9.37022 11.7019 9.33391C11.7886 9.2976 11.8673 9.24437 11.9336 9.17728L18.5714 2.46574V7.22222H20V0H12.8571Z" fill="black"/>
</svg>
