<svg width="22" height="23" viewBox="0 0 22 23" fill="none" xmlns="http://www.w3.org/2000/svg">
<path d="M20.1634 5.97326L10.6753 15.4617C9.73045 16.4066 6.92577 16.8442 6.29919 16.2176C5.67262 15.591 6.10028 12.7862 7.04511 11.8414L16.5432 2.34292C16.7774 2.08736 17.061 1.88194 17.3768 1.73901C17.6926 1.59609 18.0341 1.51861 18.3807 1.51131C18.7272 1.50402 19.0718 1.56702 19.3933 1.69653C19.7148 1.82603 20.0068 2.01938 20.2516 2.26485C20.4964 2.51032 20.6889 2.80283 20.8175 3.12475C20.9461 3.44667 21.0083 3.7913 21 4.13787C20.9917 4.48444 20.9133 4.82578 20.7696 5.14122C20.6258 5.45666 20.4196 5.73971 20.1634 5.97326Z" stroke="#050505" stroke-width="2" stroke-linecap="round" stroke-linejoin="round"/>
<path d="M9.95103 3.58691H4.97824C3.92314 3.58691 2.91132 4.00606 2.16526 4.75216C1.4192 5.49827 1 6.51019 1 7.56533V17.5114C1 18.5666 1.4192 19.5785 2.16526 20.3245C2.91132 21.0707 3.92314 21.4898 4.97824 21.4898H15.9184C18.1164 21.4898 18.9021 19.6995 18.9021 17.5114V12.5384" stroke="#050505" stroke-width="2" stroke-linecap="round" stroke-linejoin="round"/>
</svg>
