<svg width="64" height="56" viewBox="0 0 64 56" fill="none" xmlns="http://www.w3.org/2000/svg">
<path d="M55.2321 10.7279L31.2498 2.25098C30.7921 2.08921 30.2912 2.09941 29.8405 2.2797L2.19685 13.3371L29.7966 24.2072C30.2737 24.3951 30.8048 24.3926 31.2801 24.2001L55.3162 14.4674C57.0228 13.7764 56.968 11.3415 55.2321 10.7279Z" fill="white"/>
<path d="M2 13.4159L2.19685 13.3371M2.19685 13.3371L29.8405 2.2797C30.2912 2.09941 30.7921 2.08921 31.2498 2.25098L55.2321 10.7279C56.968 11.3415 57.0228 13.7764 55.3162 14.4674L31.2801 24.2001C30.8048 24.3926 30.2737 24.3951 29.7966 24.2072L2.19685 13.3371Z" stroke="#1C4BC4" stroke-width="4" stroke-linecap="round"/>
<path d="M47.5312 18.5261V31.203C47.5312 36.4844 21.077 41.3174 12.4681 31.7325C12.1682 31.3987 12.0225 30.959 12.0225 30.5103V17.9287" stroke="#1C4BC4" stroke-width="4" stroke-linecap="round"/>
<path d="M55.6942 15.3408V34.1239M55.6942 34.1239L60.4653 38.443C61.304 39.2022 61.3466 40.5055 60.5591 41.3178L55.6942 46.3362M55.6942 34.1239L51.268 38.4993C50.5121 39.2465 50.4727 40.4545 51.1784 41.2494L55.6942 46.3362M55.6942 46.3362V53.2389" stroke="#1C4BC4" stroke-width="4" stroke-linecap="round"/>
</svg>
